<?xml version="1.0" standalone="no"?>
<!DOCTYPE svg PUBLIC "-//W3C//DTD SVG 1.0//EN" "http://www.w3.org/TR/2001/REC-SVG-20010904/DTD/svg10.dtd">
<svg xmlns="http://www.w3.org/2000/svg" xmlns:xlink="http://www.w3.org/1999/xlink" id="body_1" width="123" height="59">

<g transform="matrix(0.5 0 0 0.5 0 0)">
    <path d="M0 0L246 0L246 118L0 118z" stroke="none" fill="none" />
    <path d="M0 0L246 0L246 118L0 118z" stroke="none" fill="none" />
    <path d="M44.671 104.964C 28.4977 97.0915 18.8706 84.107 15.9876 66.1916C 12.0502 41.7238 26.3667 18.7514 47.8213 11.0418C 72.0203 2.34591 98.4072 13.3739 109.042 37.77C 117.386 56.911 114.072 78.5619 99.478 93.9237C 88.9179 105.039 75.9185 109.91 60.9593 109.081C 55.3981 108.772 49.9697 107.42 44.671 104.964zM69.2908 105.323C 70.0813 105.168 70.8679 104.988 71.6628 104.864C 96.2585 101.034 113.542 76.2024 109.216 50.8856C 104.98 26.0976 83.0405 8.31335 57.6573 12.2826C 32.6418 16.1944 16.0959 40.1432 19.4266 64.3534C 21.4078 78.7541 28.1827 89.8929 39.8144 97.9277C 48.6028 103.999 58.4069 106.039 69.2908 105.323z" stroke="none" fill="#C8FFEE" fill-rule="nonzero" />
    <path d="M50.2 87.1908C 54.9595 78.1801 59.7307 69.3121 64.7739 59.9386C 57.3775 60.9098 50.399 61.8262 43.4204 62.7425C 43.2904 62.4817 43.1605 62.2208 43.0305 61.96C 53.2934 51.1635 63.5564 40.367 73.8193 29.5706C 74.025 29.7034 74.2307 29.8363 74.4365 29.9691C 71.4863 36.2323 68.5361 42.4955 65.2829 49.4019C 72.363 49.4019 78.9539 49.4019 85.5142 49.4019C 85.7478 51.1474 84.772 51.6934 84.1611 52.3408C 73.3012 63.8499 62.4095 75.327 51.509 86.7951C 51.1896 87.1312 50.9635 87.9934 50.2 87.1908z" stroke="none" fill="#20DD44" fill-rule="nonzero" />
    <path d="M142.575 77.575C 143.875 77.575 145.033 77.3583 146.05 76.925C 147.083 76.4917 147.95 75.8833 148.65 75.1C 149.35 74.3167 149.883 73.3667 150.25 72.25C 150.633 71.1333 150.825 69.8833 150.825 68.5L150.825 68.5L150.825 46.85L157.55 46.85L157.55 68.5C 157.55 70.65 157.2 72.6417 156.5 74.475C 155.817 76.2917 154.825 77.8667 153.525 79.2C 152.242 80.5167 150.675 81.55 148.825 82.3C 146.975 83.0333 144.892 83.4 142.575 83.4C 140.242 83.4 138.15 83.0333 136.3 82.3C 134.45 81.55 132.875 80.5167 131.575 79.2C 130.292 77.8667 129.3 76.2917 128.6 74.475C 127.917 72.6417 127.575 70.65 127.575 68.5L127.575 68.5L127.575 46.85L134.3 46.85L134.3 68.475C 134.3 69.8583 134.483 71.1083 134.85 72.225C 135.233 73.3417 135.775 74.3 136.475 75.1C 137.192 75.8833 138.058 76.4917 139.075 76.925C 140.108 77.3583 141.275 77.575 142.575 77.575zM166.234 83L166.234 61.6L163.584 61.275C 163.201 61.1917 162.884 61.0583 162.634 60.875C 162.401 60.675 162.284 60.3917 162.284 60.025L162.284 60.025L162.284 58L166.234 58L166.234 56.75C 166.234 55.35 166.451 54.025 166.884 52.775C 167.318 51.525 167.968 50.425 168.834 49.475C 169.701 48.525 170.784 47.775 172.084 47.225C 173.401 46.675 174.943 46.4 176.709 46.4C 178.143 46.4 179.501 46.4583 180.784 46.575C 182.084 46.675 183.359 46.725 184.609 46.725L184.609 46.725L187.334 46.725L187.334 83L182.459 83L182.459 50.15C 181.559 50.1167 180.659 50.075 179.759 50.025C 178.876 49.975 178.109 49.95 177.459 49.95C 175.376 49.95 173.776 50.55 172.659 51.75C 171.543 52.9333 170.984 54.6 170.984 56.75L170.984 56.75L170.984 58L177.434 58L177.434 61.55L171.134 61.55L171.134 83L166.234 83zM199.371 57.6L199.371 83L194.496 83L194.496 57.6L199.371 57.6zM200.296 49.75C 200.296 50.2 200.204 50.6333 200.021 51.05C 199.837 51.45 199.587 51.8083 199.271 52.125C 198.971 52.425 198.612 52.6667 198.196 52.85C 197.779 53.0167 197.346 53.1 196.896 53.1C 196.446 53.1 196.021 53.0167 195.621 52.85C 195.221 52.6667 194.862 52.425 194.546 52.125C 194.246 51.8083 194.004 51.45 193.821 51.05C 193.654 50.6333 193.571 50.2 193.571 49.75C 193.571 49.2833 193.654 48.85 193.821 48.45C 194.004 48.0333 194.246 47.675 194.546 47.375C 194.862 47.0583 195.221 46.8167 195.621 46.65C 196.021 46.4667 196.446 46.375 196.896 46.375C 197.346 46.375 197.779 46.4667 198.196 46.65C 198.612 46.8167 198.971 47.0583 199.271 47.375C 199.587 47.675 199.837 48.0333 200.021 48.45C 200.204 48.85 200.296 49.2833 200.296 49.75z" stroke="none" fill="#20DD44" fill-rule="nonzero" />
    <path d="M227.142 83L224.685 83C 224.433 83 224.235 82.928 224.091 82.784C 223.947 82.622 223.83 82.469 223.74 82.325L223.74 82.325L215.586 70.418C 215.514 70.742 215.379 71.057 215.181 71.363L215.181 71.363L207.405 82.325C 207.279 82.487 207.144 82.64 207 82.784C 206.874 82.928 206.703 83 206.487 83L206.487 83L204.165 83L213.939 69.257L204.543 56.135L207 56.135C 207.252 56.135 207.441 56.189 207.567 56.297C 207.693 56.405 207.801 56.531 207.891 56.675L207.891 56.675L215.775 68.042C 215.811 67.898 215.865 67.745 215.937 67.583C 216.027 67.421 216.117 67.259 216.207 67.097L216.207 67.097L223.578 56.702C 223.686 56.54 223.803 56.405 223.929 56.297C 224.055 56.189 224.217 56.135 224.415 56.135L224.415 56.135L226.764 56.135L217.395 69.095L227.142 83z" stroke="none" fill="#C8FFEE" fill-rule="nonzero" />
</g>
</svg>