<svg width="246" height="118" viewBox="0 0 246 118" fill="none" xmlns="http://www.w3.org/2000/svg">
<!-- <rect width="246" height="118" fill="none"/> -->
<rect width="246" height="118" fill="none"/>
<path d="M44.671 104.964C28.4977 97.0915 18.8706 84.107 15.9876 66.1916C12.0502 41.7238 26.3667 18.7514 47.8213 11.0418C72.0203 2.34591 98.4072 13.3739 109.042 37.77C117.386 56.911 114.072 78.5619 99.478 93.9237C88.9179 105.039 75.9185 109.91 60.9593 109.081C55.3981 108.772 49.9697 107.42 44.671 104.964ZM69.2908 105.323C70.0813 105.168 70.8679 104.988 71.6628 104.864C96.2585 101.034 113.542 76.2024 109.216 50.8856C104.98 26.0976 83.0405 8.31335 57.6573 12.2826C32.6418 16.1944 16.0959 40.1432 19.4266 64.3534C21.4078 78.7541 28.1827 89.8929 39.8144 97.9277C48.6028 103.999 58.4069 106.039 69.2908 105.323Z" fill="#C8FFEE"/>
<path d="M50.2 87.1908C54.9595 78.1801 59.7307 69.3121 64.7739 59.9386C57.3775 60.9098 50.399 61.8262 43.4204 62.7425C43.2904 62.4817 43.1605 62.2208 43.0305 61.96C53.2934 51.1635 63.5564 40.367 73.8193 29.5706C74.025 29.7034 74.2307 29.8363 74.4365 29.9691C71.4863 36.2323 68.5361 42.4955 65.2829 49.4019C72.363 49.4019 78.9539 49.4019 85.5142 49.4019C85.7478 51.1474 84.772 51.6934 84.1611 52.3408C73.3012 63.8499 62.4095 75.327 51.509 86.7951C51.1896 87.1312 50.9635 87.9934 50.2 87.1908Z" fill="#20DD44"/>
<path d="M142.575 77.575C143.875 77.575 145.033 77.3583 146.05 76.925C147.083 76.4917 147.95 75.8833 148.65 75.1C149.35 74.3167 149.883 73.3667 150.25 72.25C150.633 71.1333 150.825 69.8833 150.825 68.5V46.85H157.55V68.5C157.55 70.65 157.2 72.6417 156.5 74.475C155.817 76.2917 154.825 77.8667 153.525 79.2C152.242 80.5167 150.675 81.55 148.825 82.3C146.975 83.0333 144.892 83.4 142.575 83.4C140.242 83.4 138.15 83.0333 136.3 82.3C134.45 81.55 132.875 80.5167 131.575 79.2C130.292 77.8667 129.3 76.2917 128.6 74.475C127.917 72.6417 127.575 70.65 127.575 68.5V46.85H134.3V68.475C134.3 69.8583 134.483 71.1083 134.85 72.225C135.233 73.3417 135.775 74.3 136.475 75.1C137.192 75.8833 138.058 76.4917 139.075 76.925C140.108 77.3583 141.275 77.575 142.575 77.575ZM166.234 83V61.6L163.584 61.275C163.201 61.1917 162.884 61.0583 162.634 60.875C162.401 60.675 162.284 60.3917 162.284 60.025V58H166.234V56.75C166.234 55.35 166.451 54.025 166.884 52.775C167.318 51.525 167.968 50.425 168.834 49.475C169.701 48.525 170.784 47.775 172.084 47.225C173.401 46.675 174.943 46.4 176.709 46.4C178.143 46.4 179.501 46.4583 180.784 46.575C182.084 46.675 183.359 46.725 184.609 46.725H187.334V83H182.459V50.15C181.559 50.1167 180.659 50.075 179.759 50.025C178.876 49.975 178.109 49.95 177.459 49.95C175.376 49.95 173.776 50.55 172.659 51.75C171.543 52.9333 170.984 54.6 170.984 56.75V58H177.434V61.55H171.134V83H166.234ZM199.371 57.6V83H194.496V57.6H199.371ZM200.296 49.75C200.296 50.2 200.204 50.6333 200.021 51.05C199.837 51.45 199.587 51.8083 199.271 52.125C198.971 52.425 198.612 52.6667 198.196 52.85C197.779 53.0167 197.346 53.1 196.896 53.1C196.446 53.1 196.021 53.0167 195.621 52.85C195.221 52.6667 194.862 52.425 194.546 52.125C194.246 51.8083 194.004 51.45 193.821 51.05C193.654 50.6333 193.571 50.2 193.571 49.75C193.571 49.2833 193.654 48.85 193.821 48.45C194.004 48.0333 194.246 47.675 194.546 47.375C194.862 47.0583 195.221 46.8167 195.621 46.65C196.021 46.4667 196.446 46.375 196.896 46.375C197.346 46.375 197.779 46.4667 198.196 46.65C198.612 46.8167 198.971 47.0583 199.271 47.375C199.587 47.675 199.837 48.0333 200.021 48.45C200.204 48.85 200.296 49.2833 200.296 49.75Z" fill="#20DD44"/>
<path d="M227.142 83H224.685C224.433 83 224.235 82.928 224.091 82.784C223.947 82.622 223.83 82.469 223.74 82.325L215.586 70.418C215.514 70.742 215.379 71.057 215.181 71.363L207.405 82.325C207.279 82.487 207.144 82.64 207 82.784C206.874 82.928 206.703 83 206.487 83H204.165L213.939 69.257L204.543 56.135H207C207.252 56.135 207.441 56.189 207.567 56.297C207.693 56.405 207.801 56.531 207.891 56.675L215.775 68.042C215.811 67.898 215.865 67.745 215.937 67.583C216.027 67.421 216.117 67.259 216.207 67.097L223.578 56.702C223.686 56.54 223.803 56.405 223.929 56.297C224.055 56.189 224.217 56.135 224.415 56.135H226.764L217.395 69.095L227.142 83Z" fill="#C8FFEE"/>
</svg>
